<svg width="246" height="246" viewBox="0 0 246 246" fill="none" xmlns="http://www.w3.org/2000/svg">
<rect x="103" y="144" width="41" height="41" transform="rotate(-90 103 144)" fill="white"/>
<rect x="144" y="103" width="41" height="41" transform="rotate(-90 144 103)" fill="white"/>
<rect x="185" y="62" width="41" height="41" transform="rotate(-90 185 62)" fill="white"/>
<rect x="185" y="226" width="41" height="41" transform="rotate(-90 185 226)" fill="white"/>
<rect x="21" y="226" width="41" height="41" transform="rotate(-90 21 226)" fill="white"/>
<rect x="21" y="62" width="41" height="41" transform="rotate(-90 21 62)" fill="white"/>
<rect x="144" y="41" width="41" height="41" transform="rotate(-90 144 41)" fill="white"/>
<rect x="205" y="103" width="41" height="41" transform="rotate(-90 205 103)" fill="white"/>
<rect x="205" y="185" width="41" height="41" transform="rotate(-90 205 185)" fill="white"/>
<rect x="144" y="246" width="41" height="41" transform="rotate(-90 144 246)" fill="white"/>
<rect x="62" y="246" width="41" height="41" transform="rotate(-90 62 246)" fill="white"/>
<rect x="62" y="41" width="41" height="41" transform="rotate(-90 62 41)" fill="white"/>
<rect y="103" width="41" height="41" transform="rotate(-90 0 103)" fill="white"/>
<rect y="185" width="41" height="41" transform="rotate(-90 0 185)" fill="white"/>
<rect x="144" y="185" width="41" height="41" transform="rotate(-90 144 185)" fill="white"/>
<rect x="62" y="185" width="41" height="41" transform="rotate(-90 62 185)" fill="white"/>
<rect x="62" y="103" width="41" height="41" transform="rotate(-90 62 103)" fill="white"/>
</svg>
